# xmcd
#
# Track frame offsets: 
#        150
#        16645
#        28658
#        43742
#        55638
#        68722
#        83618
#        95814
#        111197
#        125003
#        149200
#        161762
#        174026
#        187422
#        201718
#        216820
#        234938
#
# Disc length: 3351 seconds
#
# Revision: 0
# Processed by: cddbd v1.5.2PL0 Copyright (c) Steve Scherf et al.
# Submitted via: ExactAudioCopyFreeDBPlugin 1.0
#
DISCID=f60d1511
DTITLE=Tango Danzari - Historias
DYEAR=2013
DGENRE=Tango
TTITLE0=Felicia
TTITLE1=La Trampera
TTITLE2=Corazon De Oro
TTITLE3=Nueve De Julio
TTITLE4=Hoy En Dia
TTITLE5=El Desbande
TTITLE6=Nocturna
TTITLE7=La Cachila
TTITLE8=El Ingeniero
TTITLE9=Milonga Sin Palabras
TTITLE10=Reliquias Portenas
TTITLE11=Sin Rumbo Fijo
TTITLE12=Payadora
TTITLE13=La Yumba
TTITLE14=Jacinto Chiclana
TTITLE15=A Fuego Lento
TTITLE16=Tango
EXTD=
EXTT0=
EXTT1=
EXTT2=
EXTT3=
EXTT4=
EXTT5=
EXTT6=
EXTT7=
EXTT8=
EXTT9=
EXTT10=
EXTT11=
EXTT12=
EXTT13=
EXTT14=
EXTT15=
EXTT16=
PLAYORDER=
